<svg xmlns="http://www.w3.org/2000/svg" xmlns:xlink="http://www.w3.org/1999/xlink" id="Layer_1" x="0px" y="0px" viewBox="0 0 512 512" style="enable-background:new 0 0 512 512;" xml:space="preserve"><style type="text/css">	.st0{fill:#1B74E4;}	.st1{fill:#FFFFFF;}	.st2{fill:#FF0000;}	.st3{fill:#07B53B;}	.st4{fill:url(#SVGID_1_);}	.st5{fill:url(#SVGID_00000029746534634670375790000007036046610978258053_);}	.st6{fill:url(#SVGID_00000080182796125709308830000011144877989726598812_);}	.st7{fill:url(#SVGID_00000020365301518945866290000008685721103083549587_);}</style><g>	<circle class="st2" cx="256" cy="256" r="255"></circle>	<path class="st1" d="M341.3,152.7H170.7c-33.5,0-60.6,27.1-60.6,60.6v85.3c0,33.5,27.1,60.6,60.6,60.6h170.6  c33.5,0,60.6-27.1,60.6-60.6v-85.3C401.9,179.9,374.8,152.7,341.3,152.7L341.3,152.7z M300.3,260.2l-79.8,38.1  c-2.1,1-4.6-0.5-4.6-2.9v-78.5c0-2.4,2.5-3.9,4.7-2.9l79.8,40.4C302.8,255.6,302.7,259,300.3,260.2L300.3,260.2z"></path></g></svg>