<svg xmlns="http://www.w3.org/2000/svg" xmlns:xlink="http://www.w3.org/1999/xlink" id="Layer_1" x="0px" y="0px" viewBox="0 0 512 512" style="enable-background:new 0 0 512 512;" xml:space="preserve"><style type="text/css">	.st0{fill:#1B74E4;}	.st1{fill:#FFFFFF;}	.st2{fill:#FF0000;}	.st3{fill:#07B53B;}	.st4{fill:url(#SVGID_1_);}	.st5{fill:url(#SVGID_00000112634466617713271080000015655666225107151021_);}	.st6{fill:url(#SVGID_00000103952156475192317980000008209663782552862610_);}	.st7{fill:url(#SVGID_00000006667848143059826660000007649509336614807433_);}</style><g>	<circle class="st3" cx="256" cy="256" r="255"></circle>	<path class="st1" d="M400.7,248.8c0.7-3.5,1-6.5,1.2-8.8c0.3-3.8,0-9.6-0.1-11.3C398.2,167,334.3,117.9,256,117.9  c-80.6,0-145.9,52-145.9,116.1c0,58.9,55.2,107.6,126.7,115.1c4.4,0.5,7.5,4.4,7,8.8l-3,27.4c-0.7,6.2,5.7,10.7,11.4,8  c60.4-29.2,96.5-59.2,118.1-85.1c3.9-4.7,16.7-22.7,19.3-27.4C395.1,270.8,398.9,260,400.7,248.8z"></path>	<g>		<path class="st3" d="M175.7,257.5v-48.9c0-4.1-3.3-7.5-7.5-7.5l0,0c-4.1,0-7.5,3.3-7.5,7.5V265c0,4.1,3.3,7.5,7.5,7.5h29.9   c4.1,0,7.5-3.3,7.5-7.5l0,0c0-4.1-3.3-7.5-7.5-7.5L175.7,257.5L175.7,257.5z"></path>		<path class="st3" d="M221.8,272.4h-3.3c-3.2,0-5.8-2.6-5.8-5.8V207c0-3.2,2.6-5.8,5.8-5.8h3.3c3.2,0,5.8,2.6,5.8,5.8v59.6   C227.6,269.8,225,272.4,221.8,272.4z"></path>		<path class="st3" d="M282.1,208.6V243c0,0-29.8-38.9-30.3-39.4c-1.4-1.6-3.5-2.6-5.9-2.5c-4.1,0.2-7.2,3.7-7.2,7.8v56   c0,4.1,3.3,7.5,7.5,7.5l0,0c4.1,0,7.5-3.3,7.5-7.5v-34.2c0,0,30.3,39.2,30.7,39.6c1.3,1.3,3.1,2,5.1,2c4.1,0,7.5-3.6,7.5-7.8v-56   c0-4.1-3.3-7.5-7.5-7.5l0,0C285.4,201.2,282.1,204.5,282.1,208.6z"></path>		<path class="st3" d="M353,208.6L353,208.6c0-4.1-3.3-7.5-7.5-7.5h-29.9c-4.1,0-7.5,3.3-7.5,7.5V265c0,4.1,3.3,7.5,7.5,7.5h29.9   c4.1,0,7.5-3.3,7.5-7.5l0,0c0-4.1-3.3-7.5-7.5-7.5h-22.4v-13.2h22.4c4.1,0,7.5-3.3,7.5-7.5l0,0c0-4.1-3.3-7.5-7.5-7.5h-22.4v-13.2   h22.4C349.6,216.1,353,212.7,353,208.6z"></path>	</g></g></svg>