<svg xmlns="http://www.w3.org/2000/svg" xmlns:xlink="http://www.w3.org/1999/xlink" id="Layer_1" x="0px" y="0px" viewBox="0 0 512 512" style="enable-background:new 0 0 512 512;" xml:space="preserve"><style type="text/css">	.st0{fill:#1B74E4;}	.st1{fill:#FFFFFF;}	.st2{fill:#FF0000;}	.st3{fill:#07B53B;}	.st4{fill:url(#SVGID_1_);}	.st5{fill:url(#SVGID_00000090259283079756526950000008362116109160264363_);}	.st6{fill:url(#SVGID_00000085945124547119942940000006105709114079917220_);}	.st7{fill:url(#SVGID_00000018948839616380866220000000437288701693667515_);}</style><g>			<linearGradient id="SVGID_1_" gradientUnits="userSpaceOnUse" x1="-0.3417" y1="-530.3417" x2="509.7041" y2="-20.2959" gradientTransform="matrix(1 0 0 -1 0 -18)">		<stop offset="0" style="stop-color:#111111"></stop>		<stop offset="1" style="stop-color:#323232"></stop>	</linearGradient>	<path class="st4" d="M256,1C115.2,1,1,115.2,1,256s114.2,255,255,255s255-114.2,255-255S396.8,1,256,1z"></path>			<linearGradient id="SVGID_00000137834131620458235970000005051868571564644751_" gradientUnits="userSpaceOnUse" x1="153.4528" y1="-394.5037" x2="367.6739" y2="-180.2815" gradientTransform="matrix(1 0 0 -1 0 -18)">		<stop offset="0" style="stop-color:#B5053C"></stop>		<stop offset="0.233" style="stop-color:#C90441"></stop>		<stop offset="0.737" style="stop-color:#F0014B"></stop>		<stop offset="1" style="stop-color:#FF004F"></stop>	</linearGradient>	<path style="fill:url(#SVGID_00000137834131620458235970000005051868571564644751_);" d="M393.2,187.8c-39.8,0-72.1-32.3-72.1-72.1  c0,0,0,0,0,0h-51.5v201.7c0,24.2-19.7,43.8-43.8,43.7c-24.2,0-43.8-19.7-43.7-43.8c0-24.2,19.7-43.8,43.8-43.7  c4.2,0,8.3,0.6,12.3,1.8v-50.1c-50.9-6.9-97.7,28.8-104.5,79.7c-6.9,50.9,28.8,97.7,79.7,104.5c50.9,6.9,97.7-28.8,104.5-79.7  c0.6-4.1,0.8-8.3,0.8-12.4l1.5-101.9c21.2,15.5,46.7,23.9,73,23.9L393.2,187.8z"></path>			<linearGradient id="SVGID_00000021816669159087609240000003623642041772605109_" gradientUnits="userSpaceOnUse" x1="136.6608" y1="-383.6548" x2="362.306" y2="-158.0107" gradientTransform="matrix(1 0 0 -1 0 -18)">		<stop offset="0" style="stop-color:#00B2C9"></stop>		<stop offset="0.283" style="stop-color:#00C8D4"></stop>		<stop offset="0.741" style="stop-color:#00E6E4"></stop>		<stop offset="1" style="stop-color:#00F1EA"></stop>	</linearGradient>	<path style="fill:url(#SVGID_00000021816669159087609240000003623642041772605109_);" d="M379.6,173.8c-39.8,0-72.1-32.3-72.1-72.1  H256v201.7c0,24.2-19.7,43.8-43.8,43.7c-24.2,0-43.8-19.7-43.7-43.8c0-24.2,19.7-43.8,43.8-43.7c4.2,0,8.3,0.6,12.3,1.8v-50.1  c-50.9-6.9-97.7,28.8-104.5,79.7c-6.9,50.9,28.8,97.7,79.7,104.5c50.9,6.9,97.7-28.8,104.5-79.7c0.6-4.1,0.8-8.3,0.8-12.4  l1.5-101.9c21.2,15.5,46.7,23.9,73,23.9L379.6,173.8z"></path>			<linearGradient id="SVGID_00000134939809470493267830000004823328604215738284_" gradientUnits="userSpaceOnUse" x1="10.2449" y1="-523.8951" x2="509.7112" y2="-24.4289" gradientTransform="matrix(1 0 0 -1 0 -18)">		<stop offset="0" style="stop-color:#DDE3E4"></stop>		<stop offset="1" style="stop-color:#FCF7F7"></stop>	</linearGradient>	<path style="fill:url(#SVGID_00000134939809470493267830000004823328604215738284_);" d="M379.6,186.5  c-17.8-3.4-33.7-13.5-44.4-28.1c-13.6-10.6-22.9-25.8-26.3-42.7h-39.3v201.7c0,24.2-19.6,43.8-43.8,43.8c-15.3,0-29.5-8-37.5-21.1  c-20.3-13.2-26-40.4-12.8-60.7c10.6-16.2,30.5-23.6,49.1-18.1v-36.8c-51.3,0.7-92.4,42.8-91.7,94.1c0.3,20.4,7.2,40.1,19.8,56.1  c39.4,32.9,98,27.6,130.9-11.8c13.9-16.7,21.6-37.8,21.6-59.5l1.5-101.9c21.2,15.5,46.7,23.9,73,23.9L379.6,186.5z"></path></g></svg>